<svg height="512" viewBox="0 0 512 512" width="512" xmlns="http://www.w3.org/2000/svg">
    <g fill="none" fill-rule="evenodd">
        <circle cx="256" cy="256" fill="#d04351" r="240"/>
        <g fill="#fff">
            <path d="m278.627417 120.235498c12.496777 12.496777 12.496777 32.758057 0 45.254834-9.486707 9.486707-23.447955 11.771748-35.090207 6.855125-14.461773 15.691029-14.078791 40.141653 1.148374 55.369564l40.305794 40.305794-.005815.004809.041355.042856c23.858714 24.64513 24.002932 63.729873.432656 88.549569 4.947031 11.652916 2.670032 25.644264-6.832157 35.146453-12.496777 12.496777-32.758057 12.496777-45.254834 0s-12.496777-32.758057 0-45.254834c9.486708-9.486708 23.447957-11.771749 35.09021-6.855124 14.4621-15.691194 14.078969-40.141473-1.148039-55.369227l-40.306132-40.306132.004941-.005561-.040143-.041767c-10.243592-10.581235-16.115746-23.824213-17.616461-37.457144l-37.026276 37.027571c4.935961 11.649246 2.655844 25.628938-6.840351 35.125133-12.496777 12.496777-32.758057 12.496777-45.254834 0s-12.496777-32.758057 0-45.254834c9.496195-9.496195 23.475887-11.776312 35.125133-6.840351l71.171601-71.171601c-4.935961-11.649246-2.655844-25.628938 6.840351-35.125133 12.496777-12.496777 32.758057-12.496777 45.254834 0zm-31.112698 240.88771c-4.686292 4.686292-4.686292 12.284271 0 16.970563 4.686291 4.686291 12.284271 4.686291 16.970562 0 4.686292-4.686292 4.686292-12.284271 0-16.970563-4.686291-4.686291-12.284271-4.686291-16.970562 0zm-113.137085-113.137085c-4.686292 4.686292-4.686292 12.284271 0 16.970563 4.686291 4.686291 12.284271 4.686291 16.970562 0 4.686292-4.686292 4.686292-12.284271 0-16.970563-4.686291-4.686291-12.284271-4.686291-16.970562 0zm113.137085-113.137085c-4.686292 4.686292-4.686292 12.284271 0 16.970563 4.686291 4.686291 12.284271 4.686291 16.970562 0 4.686292-4.686292 4.686292-12.284271 0-16.970563-4.686291-4.686291-12.284271-4.686291-16.970562 0z"/>
            <path d="m391.764502 233.372583c12.496777 12.496777 12.496777 32.758057 0 45.254834-9.495924 9.495924-23.475089 11.776182-35.124136 6.840773l-45.877579 45.880165c4.069844-11.983909 5.142888-24.76096 3.219133-37.163105l25.687397-25.687534c-4.935961-11.649246-2.655844-25.628938 6.840351-35.125133 12.496777-12.496777 32.758057-12.496777 45.254834 0zm-31.112698 14.61354c-4.686292 4.686292-4.686292 12.284271 0 16.970563 4.686291 4.686291 12.284271 4.686291 16.970562 0 4.686292-4.686292 4.686292-12.284271 0-16.970563-4.686291-4.686291-12.284271-4.686291-16.970562 0z"/>
        </g>
    </g>
</svg>
