<svg width="232" height="232" viewBox="0 0 232 232" fill="none" xmlns="http://www.w3.org/2000/svg">
<g filter="url(#filter0_b)">
<path d="M231.5 1V0.5H231H1H0.5V1V231V231.5H1H231H231.5V231V1ZM40.5 25C40.5 33.0082 34.0082 39.5 26 39.5C17.9918 39.5 11.5 33.0082 11.5 25C11.5 16.9918 17.9918 10.5 26 10.5C34.0082 10.5 40.5 16.9918 40.5 25ZM220.5 25C220.5 33.0082 214.008 39.5 206 39.5C197.992 39.5 191.5 33.0082 191.5 25C191.5 16.9918 197.992 10.5 206 10.5C214.008 10.5 220.5 16.9918 220.5 25ZM40.5 205C40.5 213.008 34.0082 219.5 26 219.5C17.9918 219.5 11.5 213.008 11.5 205C11.5 196.992 17.9918 190.5 26 190.5C34.0082 190.5 40.5 196.992 40.5 205ZM220.5 205C220.5 213.008 214.008 219.5 206 219.5C197.992 219.5 191.5 213.008 191.5 205C191.5 196.992 197.992 190.5 206 190.5C214.008 190.5 220.5 196.992 220.5 205ZM209.5 111C209.5 162.639 167.639 204.5 116 204.5C64.3613 204.5 22.5 162.639 22.5 111C22.5 59.3613 64.3613 17.5 116 17.5C167.639 17.5 209.5 59.3613 209.5 111Z" fill="white" stroke="white"/>
<path d="M63.5 146.5C63.5 149.959 60.8969 152.5 58 152.5C55.1031 152.5 52.5 149.959 52.5 146.5C52.5 143.041 55.1031 140.5 58 140.5C60.8969 140.5 63.5 143.041 63.5 146.5Z" stroke="white" stroke-width="5"/>
<path d="M54.9856 139.466C54.9856 139.466 51.1973 116.315 83.1874 93.1647C115.178 70.014 133.698 69.5931 133.698 69.5931" stroke="white" stroke-width="5" stroke-linecap="round"/>
<path d="M178.902 142.686C177.27 139.853 173.652 138.88 170.819 140.512C167.987 142.144 167.014 145.762 168.646 148.595C170.277 151.427 173.896 152.4 176.728 150.768C179.561 149.137 180.534 145.518 178.902 142.686Z" stroke="white" stroke-width="5"/>
<path d="M169.409 151.555C169.409 151.555 151.24 166.394 115.211 150.232C79.182 134.07 69.5718 118.232 69.5718 118.232" stroke="white" stroke-width="5" stroke-linecap="round"/>
<path d="M109.577 41.9707C107.966 44.8143 108.964 48.4262 111.808 50.038C114.651 51.6498 118.263 50.6512 119.875 47.8075C121.487 44.9639 120.488 41.3521 117.645 39.7403C114.801 38.1285 111.189 39.1271 109.577 41.9707Z" stroke="white" stroke-width="5"/>
<path d="M122.038 45.6467C122.038 45.6467 144.047 53.7668 148.412 93.0129C152.778 132.259 144.012 148.579 144.012 148.579" stroke="white" stroke-width="5" stroke-linecap="round"/>
<path d="M59.6334 105C59.6334 105 50.4373 82.1038 61.3054 73.3616C72.1736 64.6194 96 69.1987 96 69.1987" stroke="white" stroke-width="5" stroke-linecap="round"/>
<path d="M149.532 66.9784C149.532 66.9784 174.391 68.9134 177.477 82.6384C180.564 96.3634 165.799 115.833 165.799 115.833" stroke="white" stroke-width="5" stroke-linecap="round"/>
<path d="M138.248 163.363C138.248 163.363 124.023 183.841 110.618 179.573C97.2129 175.305 87.8662 152.728 87.8662 152.728" stroke="white" stroke-width="5" stroke-linecap="round"/>
<path d="M116 119C120.418 119 124 115.642 124 111.5C124 107.358 120.418 104 116 104C111.582 104 108 107.358 108 111.5C108 115.642 111.582 119 116 119Z" fill="white"/>
</g>
<defs>
<filter id="filter0_b" x="-4" y="-4" width="240" height="240" filterUnits="userSpaceOnUse" color-interpolation-filters="sRGB">
<feFlood flood-opacity="0" result="BackgroundImageFix"/>
<feGaussianBlur in="BackgroundImage" stdDeviation="2"/>
<feComposite in2="SourceAlpha" operator="in" result="effect1_backgroundBlur"/>
<feBlend mode="normal" in="SourceGraphic" in2="effect1_backgroundBlur" result="shape"/>
</filter>
</defs>
</svg>
